<?xml version="1.0" encoding="UTF-8" standalone="no"?>
<!-- Created with Inkscape (http://www.inkscape.org/) -->

<svg
   xmlns:dc="http://purl.org/dc/elements/1.1/"
   xmlns:cc="http://creativecommons.org/ns#"
   xmlns:rdf="http://www.w3.org/1999/02/22-rdf-syntax-ns#"
   xmlns:svg="http://www.w3.org/2000/svg"
   xmlns="http://www.w3.org/2000/svg"
   xmlns:sodipodi="http://sodipodi.sourceforge.net/DTD/sodipodi-0.dtd"
   xmlns:inkscape="http://www.inkscape.org/namespaces/inkscape"
   width="744.09448819"
   height="1052.3622047"
   id="svg2"
   version="1.1"
   inkscape:version="0.48.4 r9939"
   sodipodi:docname="New document 1">
  <defs
     id="defs4" />
  <sodipodi:namedview
     id="base"
     pagecolor="#ffffff"
     bordercolor="#666666"
     borderopacity="1.0"
     inkscape:pageopacity="0.0"
     inkscape:pageshadow="2"
     inkscape:zoom="0.7"
     inkscape:cx="259.74979"
     inkscape:cy="802.41864"
     inkscape:document-units="px"
     inkscape:current-layer="layer1"
     showgrid="false"
     inkscape:window-width="926"
     inkscape:window-height="578"
     inkscape:window-x="173"
     inkscape:window-y="127"
     inkscape:window-maximized="0" />
  <metadata
     id="metadata7">
    <rdf:RDF>
      <cc:Work
         rdf:about="">
        <dc:format>image/svg+xml</dc:format>
        <dc:type
           rdf:resource="http://purl.org/dc/dcmitype/StillImage" />
        <dc:title></dc:title>
      </cc:Work>
    </rdf:RDF>
  </metadata>
  <g
     inkscape:label="Layer 1"
     inkscape:groupmode="layer"
     id="layer1">
    <g
       id="g3833"
       transform="translate(-640,-468.57143)">
      <path
         sodipodi:nodetypes="ccccccccccccccccccccccccccc"
         inkscape:connector-curvature="0"
         id="path3050"
         d="m 903.99861,747.5202 c -30.03355,-2.02886 -58.59552,-19.63276 -73.0288,-46.17566 -8.81895,-15.00442 -14.32649,-32.05412 -15.23424,-49.47241 7.63694,0.0563 14.90071,-12.19541 20.90973,-1.97904 9.29549,6.16049 19.21086,-2.91918 26.66902,-5.11552 5.00556,10.92806 19.75763,8.52822 27.31093,1.70871 6.25218,-2.89847 10.21947,9.77667 17.92743,5.84618 8.05221,-0.49789 16.59542,-12.30339 22.5332,-1.0497 11.24952,7.60357 23.36077,-13.68884 31.36687,-0.67727 9.81108,6.38967 18.92027,-7.69264 26.80549,-4.54236 4.02985,9.26892 12.26106,3.64379 18.96006,5.46296 4.4906,7.50847 -1.1869,16.51735 -1.8731,24.57413 -4.7763,20.00423 -17.35218,37.6807 -32.99561,50.74982 -19.16409,15.98489 -44.6407,23.05828 -69.35098,20.67016 z m -86.3641,-115.20068 c 7.79009,-43.87778 50.0122,-79.46045 94.93133,-77.32397 17.54616,-0.44348 35.23717,3.60755 50.06942,13.20867 23.74433,13.87245 40.63724,38.6616 45.36334,65.6863 -5.1231,8.95345 -20.94489,-8.53448 -22.3632,-2.16371 -7.91286,8.67812 -16.56884,7.62893 -23.67859,-1.93648 -8.314,2.77111 -18.87567,12.55493 -26.79179,3.28128 -7.21116,-8.81126 -15.14573,7.41275 -24.79762,3.55232 -7.34077,-0.62174 -10.60904,-12.05987 -18.2575,-3.54036 -8.13979,7.75735 -17.81175,2.07791 -24.41112,-3.72663 -7.37838,5.32751 -20.01819,11.40372 -27.58865,2.5061 -6.24783,-6.98639 -17.61773,12.0188 -22.67978,1.82641 0.068,-0.45662 0.13611,-0.91337 0.20416,-1.36993 z"
         style="fill:#0000ff" />
      <path
         inkscape:connector-curvature="0"
         id="text3052"
         d="m 833.95579,669.68175 c -5.54191,1.16995 1.64755,10.42762 1.72648,3.56702 0.002,-1.22416 0.20786,-3.19263 -1.72648,-3.56702 z m 0,-2.58986 c 6.42249,1.13901 5.7241,10.55262 0.073,11.89305 -6.25919,-0.31294 -6.43973,-11.67058 -0.073,-11.89305 z m 9.01591,9.96485 c 1.40064,2.03542 -1.34437,9.0465 -2.64491,3.91699 0.638,-4.28096 -1.16143,-10.53332 0.91541,-13.57954 3.33914,1.4795 6.59972,-1.49471 7.54413,2.94263 1.80493,2.57744 -1.60066,12.87386 -5.81463,6.71992 z m 1.74023,-7.33452 c -5.42395,1.16701 1.61635,10.27794 1.68985,3.52324 -10e-4,-1.20641 0.21774,-3.15003 -1.68985,-3.52324 z m 14.5512,3.27777 c -0.9632,1.9516 -9.34166,0.52864 -3.58391,3.42951 7.46261,-1.71635 -0.71605,5.70689 -3.4337,1.30992 -4.12496,-2.94954 -1.905,-12.70578 4.80089,-9.8631 1.85536,1.20433 2.62023,3.2719 2.21672,5.12367 z m -2.69088,-1.20387 c -0.65877,-5.49215 -5.24538,1.80101 0,0 z m 12.8987,0 c 0,2.29983 0,4.59968 0,6.89952 -6.15228,0.64652 0.5217,-10.35421 -5.24554,-7.72856 -0.91402,1.82605 0.84984,9.77997 -2.91986,6.5351 0.70223,-2.97404 -1.89626,-9.37377 1.52586,-10.00279 2.63361,1.68146 5.79662,-2.15951 6.44595,2.14068 0.17458,0.70908 0.2264,1.43483 0.19359,2.15605 z m 1.71101,-4.43107 c 5.20265,-1.41427 2.69102,10.51726 4.53852,4.49403 -1.22817,-4.83347 4.92943,-5.54935 3.63767,-0.12963 1.69611,6.68154 0.36441,-7.63871 4.40806,-3.37528 -1.59958,2.65051 0.70454,11.87312 -5.09172,9.32618 0.009,-2.57615 -1.66214,-8.90977 -1.5298,-2.68565 0.62234,3.39674 -4.95812,5.16302 -4.42583,0.72774 -0.36566,-2.80227 -1.07482,-5.56574 -1.5369,-8.35739 z m 18.23656,6.23182 c -5.76173,3.17131 4.9093,2.3651 0,0 z m 3.99972,-1.36573 c 1.04649,3.38669 -0.27294,7.23954 -4.78421,6.33557 -5.93385,0.41489 -3.13748,-9.10642 1.66839,-7.68762 -0.19695,-2.04831 -8.03188,-0.43811 -3.40201,-3.57086 3.48829,-1.81355 7.77913,2.21141 6.51783,4.92291 z m 5.30864,-8.08317 c -1.51557,3.07805 6.14424,4.97448 -0.21237,6.74477 -2.52561,3.04597 5.21449,5.90814 1.37507,7.8029 -5.87031,-0.9921 -3.47307,-8.36064 -4.42938,-11.07083 1.13858,-1.30241 -0.30303,-4.70139 3.26668,-3.47684 z m 12.48184,8.85202 c -0.96325,1.95158 -9.34163,0.52864 -3.58392,3.4295 7.46253,-1.71632 -0.71609,5.70689 -3.4337,1.30992 -4.12493,-2.94953 -1.905,-12.70577 4.80088,-9.86309 1.85531,1.20408 2.62022,3.27216 2.21674,5.12367 z m -2.69088,-1.20387 c -0.65879,-5.49214 -5.24543,1.80103 0,0 z m 10.74892,-1.34551 c -6.51116,-1.64831 -0.71743,10.8632 -6.06487,7.21653 -0.0605,-3.41871 0.0136,-6.86249 -0.0189,-10.30209 2.34772,-0.3357 3.67128,2.32367 5.35696,-0.35795 1.52698,0.55258 0.36723,2.45841 0.72682,3.44351 z m 3.93391,6.60613 c 1.40073,2.03543 -1.3443,9.0465 -2.6449,3.91699 0.63792,-4.28096 -1.16141,-10.53332 0.91542,-13.57954 3.33914,1.4795 6.59971,-1.49471 7.54413,2.94262 1.80557,2.5776 -1.60168,12.87401 -5.81465,6.71993 z m 1.74031,-7.33452 c -5.42394,1.16697 1.61625,10.27794 1.68977,3.52324 -0.001,-1.2064 0.21785,-3.15005 -1.68977,-3.52324 z m 12.45992,0.72839 c -6.51113,-1.64832 -0.71746,10.86319 -6.0648,7.21652 -0.0605,-3.41871 0.0136,-6.86248 -0.0189,-10.30208 2.3477,-0.3357 3.67124,2.32368 5.3569,-0.35795 1.52695,0.5526 0.36721,2.45841 0.72679,3.44351 z m 5.21355,-0.76886 c -5.54191,1.16995 1.64758,10.42761 1.72648,3.56702 0.002,-1.22416 0.20785,-3.19262 -1.72648,-3.56702 z m 0,-2.58986 c 6.42254,1.13896 5.7242,10.55262 0.073,11.89305 -6.2592,-0.31293 -6.43977,-11.67054 -0.073,-11.89305 z m 6.39814,0.27316 c 6.06556,1.68665 0.91238,8.71193 2.584,12.57708 0.63725,3.46414 -6.30322,4.30851 -3.42322,0.57888 1.93828,-3.98105 0.38977,-8.34378 0.83922,-12.50659 0,-0.21646 0,-0.43291 0,-0.64937 z m 0,-4.41084 c 5.84055,-1.0617 -0.6411,6.28223 -0.0104,0.70409 l 0.0104,-0.70409 z m 13.32278,10.04578 c -0.96325,1.9516 -9.3417,0.52862 -3.58396,3.42951 7.46257,-1.71633 -0.7161,5.70688 -3.43372,1.30991 -4.12499,-2.94954 -1.90496,-12.70578 4.80093,-9.86309 1.85531,1.20408 2.62022,3.27215 2.21675,5.12367 z m -2.69088,-1.20387 c -0.65886,-5.49214 -5.24545,1.80105 0,0 z m 11.28263,-4.07699 c 1.92912,3.59664 -7.40589,1.67749 -4.66931,5.99199 -0.0569,2.61119 8.28863,2.89764 2.97354,5.45228 -6.68209,-0.5113 -7.48976,-9.8052 -2.00304,-11.94306 1.24507,-0.27316 2.63306,-0.0833 3.69881,0.49879 z m 5.13312,-3.57116 c -1.51556,3.07807 6.14433,4.97445 -0.21233,6.74478 -2.52567,3.04599 5.21442,5.90808 1.37512,7.80289 -5.87035,-0.99206 -3.47315,-8.36062 -4.42941,-11.07084 1.13858,-1.3024 -0.30309,-4.70139 3.26662,-3.47683 z m 4.57742,10.63254 c 6.22155,-1.24959 -0.30163,7.99806 0,1.55303 0,-0.51768 0,-1.03535 0,-1.55303 z m 5.43296,-7.41546 c 4.95923,0.2163 1.8517,5.81361 2.61776,8.6837 1.48236,4.03116 -4.46451,2.67182 -2.66864,-1.03159 0.15455,-2.53917 -0.003,-5.10162 0.0509,-7.65211 z m 0,-4.41084 c 5.84056,-1.06169 -0.64115,6.28223 -0.0104,0.70409 l 0.0104,-0.70409 z m 9.04512,6.72754 c -5.5419,1.16996 1.64759,10.42761 1.72649,3.56702 0.002,-1.22416 0.20785,-3.19263 -1.72649,-3.56702 z m 0,-2.58986 c 6.42256,1.13895 5.72416,10.55262 0.073,11.89305 -6.2592,-0.31292 -6.43979,-11.67054 -0.073,-11.89305 z"
         style="font-size:56.23719406px;font-style:normal;font-weight:normal;line-height:125%;letter-spacing:0px;word-spacing:0px;fill:#ffffff;fill-opacity:1;stroke:none;font-family:Sans" />
    </g>
  </g>
</svg>
